<svg id="Capa_1" enable-background="new 0 0 512 512" height="512" viewBox="0 0 512 512" width="512" xmlns="http://www.w3.org/2000/svg"><path d="m55.536 23.983-48.036-16.479 16.48 48.036c12.486 36.393 34.116 68.965 62.816 94.589l273.65 244.33 34.01-34.01-244.331-273.649c-25.624-28.7-58.196-50.331-94.589-62.817z" fill="#eceaec"/><path d="m378.412 342.482-6.631 6.631c-6.261 6.261-16.412 6.261-22.673 0l-50.451-51.451 22.712-20.278-31.8-34.406-22.547 24.048-259.522-259.522 16.48 48.036c12.485 36.393 34.116 68.964 62.816 94.589l273.649 244.33 34.01-34.009z" fill="#dad8db"/><path d="m409.599 357.497h32.065v136.274h-32.065z" fill="#c38c66" transform="matrix(.707 -.707 .707 .707 -176.304 425.632)"/><path d="m372.755 372.758h32.064v32.065h-32.064z" fill="#b57f5f" transform="matrix(.707 -.707 .707 .707 -161.043 388.782)"/><path d="m502.152 479.483-22.673 22.673c-3.13 3.13-8.206 3.13-11.337 0l-11.337-11.337c-3.13-3.13-3.13-8.206 0-11.337l22.673-22.673c3.13-3.13 8.206-3.13 11.337 0l11.337 11.337c3.131 3.131 3.131 8.206 0 11.337z" fill="#ffe09f"/><path d="m456.806 479.483c-3.13 3.131-3.13 8.206 0 11.337l11.337 11.335c3.13 3.131 8.206 3.131 11.336 0l11.336-11.336-22.673-22.673z" fill="#f6d190"/><path d="m488.02 55.539 16.48-48.035-48.036 16.48c-36.392 12.485-68.964 34.116-94.589 62.816l-244.33 273.65 34.01 34.01 273.65-244.33c28.699-25.626 50.329-58.198 62.815-94.591z" fill="#eceaec"/><path d="m162.891 349.113 341.609-341.609-48.036 16.48c-36.392 12.485-68.964 34.116-94.589 62.815l-244.33 273.65 34.01 34.01 17.967-16.042-6.631-6.631c-6.261-6.261-6.261-16.412 0-22.673z" fill="#dad8db"/><path d="m70.337 357.497h32.065v136.274h-32.065z" fill="#c38c66" transform="matrix(.707 .707 -.707 .707 326.266 63.593)"/><path d="m107.181 372.758h32.065v32.064h-32.065z" fill="#b57f5f" transform="matrix(.707 -.707 .707 .707 -238.826 200.995)"/><path d="m32.521 502.156-22.673-22.673c-3.13-3.13-3.13-8.206 0-11.337l11.337-11.337c3.13-3.13 8.206-3.13 11.337 0l22.673 22.673c3.13 3.13 3.13 8.206 0 11.337l-11.337 11.337c-3.131 3.13-8.206 3.13-11.337 0z" fill="#ffe09f"/><path d="m32.521 456.809c-3.131-3.13-8.206-3.13-11.337 0l-11.335 11.337c-3.131 3.13-3.131 8.206 0 11.336l11.336 11.336 22.673-22.673z" fill="#f6d190"/><path d="m507.456 462.843-11.337-11.336c-4.127-4.127-10.017-5.433-15.266-3.93l-81.459-81.459 17.37-17.37c12.301-12.301 12.301-32.315 0-44.616-2.929-2.929-7.678-2.929-10.606 0-2.929 2.929-2.929 7.678 0 10.606 3.125 3.125 4.847 7.281 4.847 11.702s-1.722 8.576-4.847 11.702l-11.393 11.393-63.939-71.612c-2.759-3.089-7.499-3.357-10.59-.6-3.09 2.759-3.358 7.5-.6 10.59l64.504 72.246-6.69 6.69-86.656-86.656 139.404-124.468c29.594-26.423 52.041-60.225 64.916-97.751l16.48-48.036c.929-2.709.234-5.711-1.791-7.737-2.026-2.026-5.03-2.72-7.737-1.791l-48.036 16.48c-37.526 12.875-71.327 35.322-97.75 64.916l-100.28 112.312-100.28-112.313c-26.423-29.594-60.225-52.041-97.751-64.916l-48.035-16.48c-2.709-.928-5.711-.235-7.737 1.791-2.025 2.025-2.72 5.028-1.791 7.737l16.48 48.036c12.875 37.526 35.322 71.327 64.916 97.75l116.003 103.574-80.568 90.237-11.393-11.393c-3.125-3.125-4.847-7.281-4.847-11.702s1.722-8.576 4.847-11.702c2.929-2.929 2.929-7.678 0-10.606-2.929-2.929-7.678-2.929-10.606 0-12.301 12.301-12.301 32.315 0 44.616l17.37 17.37-81.459 81.459c-5.249-1.503-11.139-.197-15.266 3.93l-11.338 11.337c-6.05 6.05-6.05 15.893 0 21.943l22.673 22.673c3.025 3.025 6.998 4.538 10.971 4.538 3.974 0 7.947-1.513 10.972-4.538l11.336-11.337c4.127-4.127 5.433-10.017 3.93-15.266l81.459-81.459 17.37 17.37c6.15 6.15 14.229 9.226 22.308 9.226s16.158-3.075 22.308-9.226c2.929-2.929 2.929-7.678 0-10.606-2.929-2.929-7.678-2.929-10.606 0-3.125 3.125-7.281 4.847-11.702 4.847s-8.576-1.722-11.702-4.847l-11.393-11.393 93.531-83.51 93.531 83.509-11.393 11.393c-3.125 3.125-7.281 4.847-11.702 4.847s-8.576-1.722-11.702-4.847c-2.929-2.929-7.678-2.929-10.606 0-2.929 2.929-2.929 7.678 0 10.606 6.15 6.15 14.229 9.226 22.308 9.226s16.158-3.075 22.308-9.226l17.37-17.37 81.459 81.459c-1.503 5.249-.197 11.139 3.93 15.266l11.336 11.337c3.025 3.025 6.998 4.538 10.972 4.538 3.973 0 7.946-1.513 10.971-4.538l22.673-22.673c6.05-6.049 6.05-15.892.001-21.942zm-50.65 6.033-12.067-12.067 12.066-12.066 12.067 12.067zm-34.74-34.74 12.067-12.066 12.067 12.067-12.066 12.066zm-22.673-22.672 12.067-12.067 12.066 12.067-12.066 12.066zm-254.862-319.669 101.415 113.585-14.134 15.83-196.096-196.097 17.385 5.965c35.1 12.042 66.716 33.037 91.43 60.717zm-52.739 52.739c-27.68-24.714-48.675-56.33-60.717-91.429l-5.965-17.385 196.696 196.696-14.011 15.692zm8.748 278.996-12.067-12.066 12.066-12.067 12.067 12.067zm-22.673 22.673-12.066-12.066 12.067-12.067 12.067 12.066zm-34.739 10.607 12.067-12.067 12.066 12.066-12.067 12.067zm6.763 28.706-11.336 11.337c-.202.202-.529.201-.73 0l-22.673-22.673c-.201-.201-.201-.529 0-.73l11.337-11.336c.101-.101.233-.151.365-.151s.265.05.365.151l22.673 22.673c.2.2.2.528-.001.729zm73.322-84.659-12.067-12.067 12.067-12.067 12.067 12.067zm21.943-23.403 70.305-70.305c2.929-2.929 2.929-7.678 0-10.606-2.929-2.929-7.678-2.929-10.606 0l-70.305 70.305-6.69-6.69 239.609-268.363c24.714-27.68 56.33-48.675 91.429-60.717l17.385-5.965-248.632 248.634c-2.929 2.929-2.929 7.678 0 10.606 1.464 1.464 3.384 2.197 5.303 2.197s3.839-.732 5.303-2.197l248.634-248.633-5.965 17.385c-12.042 35.1-33.038 66.715-60.717 91.429l-268.363 239.61zm122.105-76.25 12.327-11.006 87.256 87.256-6.69 6.69zm121.526 75.52 12.067 12.067-12.067 12.067-12.067-12.067zm108.062 97.455-22.673 22.673c-.201.201-.529.202-.73 0l-11.336-11.337c-.201-.201-.201-.529 0-.73l22.673-22.673c.101-.101.233-.151.365-.151s.265.05.365.151l11.337 11.336c.2.203.2.53-.001.731z"/></svg>