<?xml version="1.0"?>
<svg xmlns="http://www.w3.org/2000/svg" xmlns:xlink="http://www.w3.org/1999/xlink" version="1.1" id="Layer_1" x="0px" y="0px" viewBox="0 0 511.882 511.882" style="enable-background:new 0 0 511.882 511.882;" xml:space="preserve" width="512px" height="512px" class=""><g><polygon style="fill:#BAB7B7" points="350.216,176.572 278.374,158.615 37.038,264.123 0,338.207 125.753,374.324 386.13,258.531   " data-original="#F6BB42" class="active-path" data-old_color="#F6BB42"/><polygon style="fill:#989488" points="350.216,176.572 107.756,284.345 125.753,374.324 386.13,258.531 " data-original="#FFCE54" class="" data-old_color="#FFCE54"/><polygon style="fill:#585858" points="107.756,284.345 37.038,264.123 0.015,338.207 125.753,374.324 " data-original="#E8AA3D" class="" data-old_color="#E8AA3D"/><polygon style="fill:#BAB7B7" points="475.969,212.682 404.127,194.717 162.791,300.232 125.753,374.324 251.504,410.41   511.882,294.625 " data-original="#F6BB42" class="active-path" data-old_color="#F6BB42"/><polygon style="fill:#989488" points="475.969,212.682 233.508,320.431 251.504,410.41 511.882,294.625 " data-original="#FFCE54" class="" data-old_color="#FFCE54"/><polygon style="fill:#585858" points="233.508,320.431 162.791,300.232 125.753,374.324 251.504,410.41 " data-original="#E8AA3D" class="" data-old_color="#E8AA3D"/><polygon style="fill:#BAB7B7" points="396.316,119.429 324.488,101.473 103.867,198.435 66.843,272.519 192.596,308.621   432.245,201.379 " data-original="#F6BB42" class="active-path" data-old_color="#F6BB42"/><polygon style="fill:#989488" points="396.316,119.429 174.6,218.641 192.596,308.621 432.245,201.379 " data-original="#FFCE54" class="" data-old_color="#FFCE54"/><polygon style="fill:#585858" points="174.6,218.641 103.867,198.435 66.843,272.519 192.596,308.621 " data-original="#E8AA3D" class="" data-old_color="#E8AA3D"/></g> </svg>
